<svg width="32" height="32" viewBox="0 0 32 32" fill="none" xmlns="http://www.w3.org/2000/svg">
<path fill-rule="evenodd" clip-rule="evenodd" d="M17.0168 14.9615C12.8655 15.0077 9.82378 16.4776 7.89045 19.3718C5.36057 23.2724 5.97773 27.4811 9.74302 32C8.11046 25.5556 12.2294 20.6133 18.1498 21.0199C19.8564 21.0662 20.7431 20.0619 20.8128 18.0032C20.7509 16.0142 19.486 15.0005 17.0163 14.9615H17.0168ZM14.6123 6.77921C20.5248 5.26139 23.7509 3.00277 24.2901 0C26.42 2.58446 26.8216 5.63347 25.4943 9.14644C24.7301 11.2051 22.9889 12.8065 20.1494 13.0254C15.069 13.4175 9.69957 13.4871 6.65002 18.2466C5.58504 16.6843 5.2592 14.8718 5.67472 12.8148C6.15206 10.1223 9.132 8.10987 14.6117 6.77976L14.6123 6.77921Z" fill="black"/>
</svg>
